# xmcd
#
# Track frame offsets: 
#        150
#        14971
#        31144
#        47771
#        63199
#        75246
#        91520
#        107932
#        123107
#        137450
#        153476
#        167611
#        183398
#        200239
#        216318
#        231654
#        249300
#        264626
#        280920
#        297283
#        313185
#        329771
#        344788
#
# Disc length: 4795 seconds
#
# Revision: 7
# Processed by: cddbd v1.4PL0 Copyright (c) Steve Scherf et al.
# Submitted via: ExactAudioCopy v0.90b4
#
DISCID=5d12b917
DTITLE=Various Artist - Wild Volume 12 - Disc 1
DYEAR=2001
DGENRE=Dance
TTITLE0=Darude - Feel The Beat
TTITLE1=Chicane Ft. Bryan Adams - Don't Give Up
TTITLE2=Madison Avenue - Everything You Need
TTITLE3=Modjo - Lady (Hear Me Tonight)
TTITLE4=Bob Sinclair - I Feel For You
TTITLE5=Kylie Minogue - On A Night Like This
TTITLE6=DJ Aligator Project - Lollipop
TTITLE7=DJ Hookman and Many More Feat Base Of Drum - Calinca
TTITLE8=Carlotta Chadwick - Be There
TTITLE9=Sam Gee Ft. Barbara - Send Me An Angel
TTITLE10=Amen Vs Alex K - I Can't Wait
TTITLE11=Mass Medium - Feel Like Dancing
TTITLE12=Rob Brizzi Ft. Anna Rizzo - Lover That You Are
TTITLE13=Klubbheads - Big Bass Bomb
TTITLE14=Bad Habbit Boys - Rock Ya
TTITLE15=666 - Dance 2 Disco
TTITLE16=Floorfilla - Anthem #4
TTITLE17=ATB - The Summer
TTITLE18=Sash! - With My Own Eyes
TTITLE19=Matt Darey Presents Mash Up - Beautiful
TTITLE20=Quench - Embrace The Sunshine
TTITLE21=Afro Medusa - Pasilda
TTITLE22=Trilogy - Long Hot Summer
EXTD=
EXTT0=
EXTT1=
EXTT2=
EXTT3=
EXTT4=
EXTT5=
EXTT6=
EXTT7=
EXTT8=
EXTT9=
EXTT10=
EXTT11=
EXTT12=
EXTT13=
EXTT14=
EXTT15=
EXTT16=
EXTT17=
EXTT18=
EXTT19=
EXTT20=
EXTT21=
EXTT22=
PLAYORDER=
